<svg id="Capa_1" enable-background="new 0 0 512.003 512.003" height="512" viewBox="0 0 512.003 512.003" width="512" xmlns="http://www.w3.org/2000/svg"><g><g><path d="m326.216 256.213h-140v-169.441l140-54.821z" fill="#ff9db0"/></g><g><path d="m256.216 196.213c-38.66 0-70-31.34-70-70v130h140v-130c0 38.66-31.34 70-70 70z" fill="#ea819a"/></g><g><path d="m346.216 306.213h-180v-50c0-11.046 8.954-20 20-20h140c11.046 0 20 8.954 20 20z" fill="#f8e86a"/></g><g><path d="m246.216 236.213h-60c-11.046 0-20 8.954-20 20v50h60v-50c0-11.046 8.954-20 20-20z" fill="#fad46e"/></g><g><path d="m346.112 504.503h-179.792c-17.827 0-33.502-11.797-38.437-28.928-14.157-49.146-14.157-101.289 0-150.434 4.935-17.131 20.61-28.928 38.437-28.928h179.792c17.827 0 33.502 11.797 38.437 28.928 14.157 49.146 14.157 101.289 0 150.434-4.935 17.131-20.61 28.928-38.437 28.928z" fill="#bc9bdd"/></g><g><path d="m187.883 475.575c-14.157-49.146-14.157-101.289 0-150.434 4.935-17.13 20.61-28.928 38.437-28.928h-60c-17.827 0-33.502 11.797-38.437 28.928-14.157 49.146-14.157 101.289 0 150.434 4.935 17.13 20.61 28.928 38.437 28.928h60c-17.827 0-33.503-11.797-38.437-28.928z" fill="#b08bd7"/></g><g><ellipse cx="256.216" cy="59.457" fill="#ffb2c1" rx="77.44" ry="40" transform="matrix(.866 -.5 .5 .866 4.598 136.074)"/></g><g><g><g><ellipse cx="176.659" cy="405.921" fill="#fff" rx="29.355" ry="23.377"/></g><g><ellipse cx="335.772" cy="405.921" fill="#fff" rx="29.355" ry="23.377"/></g></g><g><path d="m193.767 390.918c-4.142 0-7.5-3.357-7.5-7.5v-12c0-4.143 3.358-7.5 7.5-7.5s7.5 3.357 7.5 7.5v12c0 4.142-3.358 7.5-7.5 7.5z"/></g><g><path d="m318.664 390.918c-4.143 0-7.5-3.357-7.5-7.5v-12c0-4.143 3.357-7.5 7.5-7.5s7.5 3.357 7.5 7.5v12c0 4.142-3.358 7.5-7.5 7.5z"/></g><g><path d="m256.216 398.061c-8.478 0-16.54-3.672-22.119-10.073-2.721-3.123-2.396-7.86.727-10.582 3.124-2.721 7.86-2.396 10.582.727 2.729 3.133 6.669 4.929 10.81 4.929s8.08-1.796 10.81-4.928c2.72-3.124 7.459-3.449 10.581-.728 3.123 2.721 3.449 7.459.728 10.581-5.579 6.403-13.642 10.074-22.119 10.074z"/></g></g><path d="m395.166 407.87c-4.156-.237-7.674 2.938-7.902 7.074-1.095 19.798-4.433 39.498-9.922 58.555-3.986 13.839-16.829 23.504-31.23 23.504h-179.792c-14.401 0-27.244-9.665-31.23-23.504-13.784-47.85-13.784-98.433 0-146.282 3.986-13.839 16.829-23.504 31.23-23.504h179.791c14.401 0 27.244 9.665 31.23 23.504 5.489 19.057 8.827 38.757 9.922 58.555.229 4.137 3.786 7.322 7.902 7.074 4.136-.229 7.303-3.767 7.074-7.902-1.156-20.922-4.684-41.74-10.484-61.879-5.113-17.75-20.197-30.8-38.04-33.729v-33.123c0-12.563-8.472-23.178-20-26.452v-197.81c0-.339-.03-.671-.074-.998-.165-5.007-1.415-9.719-3.866-13.966-6.814-11.804-21.24-17.814-40.631-16.896-17.618.825-37.747 7.299-56.679 18.229-32.539 18.787-53.008 45.603-53.67 67.415-.047.34-.08.684-.08 1.037v86.188c0 4.143 3.358 7.5 7.5 7.5s7.5-3.357 7.5-7.5v-60.094c6.751 3.96 15.486 6.048 25.793 6.047 1.236 0 2.498-.029 3.778-.09 17.618-.825 37.747-7.299 56.679-18.229 16.252-9.383 29.48-20.772 38.75-32.539v160.658h-125v-25.753c0-4.143-3.358-7.5-7.5-7.5s-7.5 3.357-7.5 7.5v26.801c-11.528 3.274-20 13.889-20 26.452v33.123c-17.843 2.929-32.926 15.978-38.04 33.729-14.566 50.565-14.566 104.021 0 154.587 5.826 20.226 24.596 34.352 45.644 34.352h179.791c21.049 0 39.818-14.126 45.645-34.352 5.801-20.139 9.328-40.958 10.484-61.879.23-4.136-2.937-7.674-7.073-7.903zm-122.7-320.267c-16.896 9.755-34.611 15.521-49.881 16.236-13.309.626-23.125-2.808-26.939-9.412-7.686-13.312 8.625-42.508 44.32-63.116 16.896-9.755 34.61-15.521 49.881-16.236 1.032-.049 2.042-.072 3.031-.072 11.762 0 20.39 3.392 23.907 9.484 7.686 13.313-8.625 42.508-44.319 63.116zm-86.25 156.11h140c6.893 0 12.5 5.607 12.5 12.5v32.5h-165v-32.5c0-6.893 5.607-12.5 12.5-12.5z"/></g></svg>